<svg xmlns="http://www.w3.org/2000/svg" xmlns:xlink="http://www.w3.org/1999/xlink" width="500" zoomAndPan="magnify" viewBox="0 0 375 374.999991" height="500" preserveAspectRatio="xMidYMid meet" version="1.0"><defs><clipPath id="5106815f97"><path d="M 108.683594 101.167969 L 282.082031 101.167969 L 282.082031 274.570312 L 108.683594 274.570312 Z M 108.683594 101.167969 " clip-rule="nonzero"/></clipPath><clipPath id="0632449774"><path d="M 195.382812 101.167969 C 243.265625 101.167969 282.082031 139.984375 282.082031 187.871094 C 282.082031 235.753906 243.265625 274.570312 195.382812 274.570312 C 147.5 274.570312 108.683594 235.753906 108.683594 187.871094 C 108.683594 139.984375 147.5 101.167969 195.382812 101.167969 L 195.382812 116.773438 C 156.121094 116.773438 124.289062 148.605469 124.289062 187.871094 C 124.289062 227.132812 156.121094 258.964844 195.382812 258.964844 C 234.648438 258.964844 266.476562 227.132812 266.476562 187.871094 C 266.476562 148.605469 234.648438 116.773438 195.382812 116.773438 Z M 195.382812 101.167969 " clip-rule="nonzero"/></clipPath><clipPath id="41e28a740e"><path d="M 122 101.167969 L 283 101.167969 L 283 275 L 122 275 Z M 122 101.167969 " clip-rule="nonzero"/></clipPath><clipPath id="afe1984f7b"><path d="M 203.957031 101.59375 C 243.914062 105.566406 275.914062 136.449219 281.300781 176.242188 C 286.683594 216.03125 264.046875 254.3125 226.582031 268.761719 C 189.121094 283.210938 146.640625 270.046875 123.910156 236.945312 C 122.332031 234.648438 122.101562 231.683594 123.300781 229.167969 C 124.503906 226.652344 126.957031 224.96875 129.734375 224.75 C 132.515625 224.53125 135.199219 225.816406 136.777344 228.113281 C 155.414062 255.253906 190.25 266.046875 220.96875 254.199219 C 251.6875 242.351562 270.25 210.960938 265.835938 178.332031 C 261.417969 145.707031 235.179688 120.378906 202.414062 117.125 C 199.640625 116.847656 197.222656 115.113281 196.074219 112.574219 C 194.929688 110.03125 195.222656 107.074219 196.847656 104.808594 C 198.472656 102.542969 201.183594 101.320312 203.957031 101.59375 Z M 203.957031 101.59375 " clip-rule="nonzero"/></clipPath><clipPath id="4b18bd811c"><path d="M 134.644531 126.726562 L 255.789062 126.726562 L 255.789062 247.871094 L 134.644531 247.871094 Z M 134.644531 126.726562 " clip-rule="nonzero"/></clipPath><clipPath id="86083706a4"><path d="M 195.214844 126.726562 C 228.667969 126.726562 255.789062 153.847656 255.789062 187.296875 C 255.789062 220.75 228.667969 247.871094 195.214844 247.871094 C 161.761719 247.871094 134.644531 220.75 134.644531 187.296875 C 134.644531 153.847656 161.761719 126.726562 195.214844 126.726562 L 195.214844 142.476562 C 170.460938 142.476562 150.390625 162.542969 150.390625 187.296875 C 150.390625 212.054688 170.460938 232.121094 195.214844 232.121094 C 219.96875 232.121094 240.039062 212.054688 240.039062 187.296875 C 240.039062 162.542969 219.96875 142.476562 195.214844 142.476562 Z M 195.214844 126.726562 " clip-rule="nonzero"/></clipPath><clipPath id="fd37a45637"><path d="M 145 127 L 256 127 L 256 248 L 145 248 Z M 145 127 " clip-rule="nonzero"/></clipPath><clipPath id="87f4f07ae2"><path d="M 204.265625 127.40625 C 231.246094 131.484375 252.167969 153.097656 255.367188 180.195312 C 258.570312 207.292969 243.257812 233.183594 217.96875 243.433594 C 192.683594 253.683594 163.664062 245.761719 147.09375 224.082031 C 144.453125 220.628906 145.109375 215.6875 148.566406 213.046875 C 152.019531 210.402344 156.964844 211.0625 159.605469 214.519531 C 171.867188 230.5625 193.339844 236.425781 212.054688 228.839844 C 230.765625 221.253906 242.097656 202.09375 239.730469 182.042969 C 237.359375 161.988281 221.878906 145.996094 201.914062 142.980469 C 199.132812 142.558594 196.785156 140.6875 195.757812 138.066406 C 194.730469 135.449219 195.179688 132.480469 196.933594 130.28125 C 198.691406 128.082031 201.484375 126.988281 204.265625 127.40625 Z M 204.265625 127.40625 " clip-rule="nonzero"/></clipPath><clipPath id="1a242f3dc8"><path d="M 93 137 L 142 137 L 142 183 L 93 183 Z M 93 137 " clip-rule="nonzero"/></clipPath><clipPath id="31335af253"><path d="M 109.414062 137.152344 L 141.175781 157.195312 L 125.414062 182.171875 L 93.652344 162.132812 Z M 109.414062 137.152344 " clip-rule="nonzero"/></clipPath><clipPath id="43ff3cab41"><path d="M 109.414062 137.152344 L 141.175781 157.195312 L 125.414062 182.171875 L 93.652344 162.132812 Z M 109.414062 137.152344 " clip-rule="nonzero"/></clipPath><clipPath id="dc36827266"><path d="M 93 196 L 142 196 L 142 240 L 93 240 Z M 93 196 " clip-rule="nonzero"/></clipPath><clipPath id="ccf02318e7"><path d="M 127.4375 196.1875 L 141.171875 218.570312 L 107.378906 239.300781 L 93.648438 216.917969 Z M 127.4375 196.1875 " clip-rule="nonzero"/></clipPath><clipPath id="a4c52e4178"><path d="M 127.4375 196.1875 L 141.171875 218.570312 L 107.378906 239.300781 L 93.648438 216.917969 Z M 127.4375 196.1875 " clip-rule="nonzero"/></clipPath><clipPath id="074d43a872"><path d="M 103.601562 150.871094 L 131.210938 150.871094 L 131.210938 223.722656 L 103.601562 223.722656 Z M 103.601562 150.871094 " clip-rule="nonzero"/></clipPath><clipPath id="b167fec27e"><path d="M 209.269531 174.324219 L 261.066406 174.324219 L 261.066406 200.269531 L 209.269531 200.269531 Z M 209.269531 174.324219 " clip-rule="nonzero"/></clipPath><clipPath id="a49fae8afc"><path d="M 143.910156 178.816406 L 209.265625 178.816406 L 209.265625 196.1875 L 143.910156 196.1875 Z M 143.910156 178.816406 " clip-rule="nonzero"/></clipPath><clipPath id="9b2fddaed3"><path d="M 187.023438 248.511719 L 209.265625 248.511719 L 209.265625 256.964844 L 187.023438 256.964844 Z M 187.023438 248.511719 " clip-rule="nonzero"/></clipPath></defs><rect x="-37.5" width="450" fill="#ffffff" y="-37.499999" height="449.999989" fill-opacity="1"/><rect x="-37.5" width="450" fill="#ffffff" y="-37.499999" height="449.999989" fill-opacity="1"/><g clip-path="url(#5106815f97)"><g clip-path="url(#0632449774)"><path fill="#000000" d="M 108.683594 101.167969 L 282.082031 101.167969 L 282.082031 274.570312 L 108.683594 274.570312 Z M 108.683594 101.167969 " fill-opacity="1" fill-rule="nonzero"/></g></g><g clip-path="url(#41e28a740e)"><g clip-path="url(#afe1984f7b)"><path fill="#000000" d="M 108.683594 101.167969 L 282.082031 101.167969 L 282.082031 274.570312 L 108.683594 274.570312 Z M 108.683594 101.167969 " fill-opacity="1" fill-rule="nonzero"/></g></g><g clip-path="url(#4b18bd811c)"><g clip-path="url(#86083706a4)"><path fill="#000000" d="M 134.644531 126.726562 L 255.789062 126.726562 L 255.789062 247.871094 L 134.644531 247.871094 Z M 134.644531 126.726562 " fill-opacity="1" fill-rule="nonzero"/></g></g><g clip-path="url(#fd37a45637)"><g clip-path="url(#87f4f07ae2)"><path fill="#000000" d="M 134.644531 126.726562 L 255.789062 126.726562 L 255.789062 247.871094 L 134.644531 247.871094 Z M 134.644531 126.726562 " fill-opacity="1" fill-rule="nonzero"/></g></g><g clip-path="url(#1a242f3dc8)"><g clip-path="url(#31335af253)"><g clip-path="url(#43ff3cab41)"><path fill="#ffffff" d="M 109.414062 137.152344 L 141.175781 157.195312 L 125.414062 182.171875 L 93.652344 162.132812 Z M 109.414062 137.152344 " fill-opacity="1" fill-rule="nonzero"/></g></g></g><g clip-path="url(#dc36827266)"><g clip-path="url(#ccf02318e7)"><g clip-path="url(#a4c52e4178)"><path fill="#ffffff" d="M 127.4375 196.1875 L 141.171875 218.570312 L 107.378906 239.300781 L 93.648438 216.917969 Z M 127.4375 196.1875 " fill-opacity="1" fill-rule="nonzero"/></g></g></g><g clip-path="url(#074d43a872)"><path fill="#ffffff" d="M 131.210938 150.871094 L 131.210938 223.722656 L 103.601562 223.722656 L 103.601562 150.871094 Z M 131.210938 150.871094 " fill-opacity="1" fill-rule="nonzero"/></g><g clip-path="url(#b167fec27e)"><path fill="#ffffff" d="M 261.066406 174.324219 L 261.066406 200.269531 L 209.269531 200.269531 L 209.269531 174.324219 Z M 261.066406 174.324219 " fill-opacity="1" fill-rule="nonzero"/></g><g clip-path="url(#a49fae8afc)"><path fill="#000000" d="M 209.265625 178.816406 L 209.265625 196.1875 L 143.910156 196.1875 L 143.910156 178.816406 Z M 209.265625 178.816406 " fill-opacity="1" fill-rule="nonzero"/></g><g clip-path="url(#9b2fddaed3)"><path fill="#ffffff" d="M 209.265625 248.511719 L 209.265625 256.964844 L 187.023438 256.964844 L 187.023438 248.511719 Z M 209.265625 248.511719 " fill-opacity="1" fill-rule="nonzero"/></g></svg>